<svg width="32" height="20" viewBox="0 0 32 20" fill="none" xmlns="http://www.w3.org/2000/svg">
<path d="M8.016 19.488C5.52 19.488 3.696 18.88 2.544 17.664C1.392 16.384 0.816 14.496 0.816 12C0.816 9.952 1.264 7.872 2.16 5.76C3.056 3.648 4.272 1.76 5.808 0.0959988L12.144 1.536C10.16 5.056 9.136 8.32 9.072 11.328H14.16V18.432C11.92 19.136 9.872 19.488 8.016 19.488ZM25.488 19.488C20.624 19.488 18.192 16.992 18.192 12C18.192 9.952 18.64 7.872 19.536 5.76C20.432 3.648 21.648 1.76 23.184 0.0959988L29.52 1.536C27.536 5.056 26.512 8.32 26.448 11.328H31.536V18.432C29.296 19.136 27.28 19.488 25.488 19.488Z" fill="black"/>
</svg>
