<svg width="88" height="88" viewBox="0 0 88 88" fill="none" xmlns="http://www.w3.org/2000/svg">
<g filter="url(#filter0_d_15_134)">
<circle cx="44" cy="39" r="35" fill="#FFFFFE"/>
</g>
<path d="M49.625 24H38.375C35.8886 24 33.504 24.9877 31.7459 26.7459C29.9877 28.504 29 30.8886 29 33.375L29 44.625C29 47.1114 29.9877 49.496 31.7459 51.2541C33.504 53.0123 35.8886 54 38.375 54H49.625C52.1114 54 54.496 53.0123 56.2541 51.2541C58.0123 49.496 59 47.1114 59 44.625V33.375C59 30.8886 58.0123 28.504 56.2541 26.7459C54.496 24.9877 52.1114 24 49.625 24ZM56.1875 44.625C56.1875 48.2437 53.2437 51.1875 49.625 51.1875H38.375C34.7562 51.1875 31.8125 48.2437 31.8125 44.625V33.375C31.8125 29.7562 34.7562 26.8125 38.375 26.8125H49.625C53.2437 26.8125 56.1875 29.7562 56.1875 33.375V44.625Z" fill="url(#paint0_linear_15_134)"/>
<path d="M44 31.5C42.0109 31.5 40.1032 32.2902 38.6967 33.6967C37.2902 35.1032 36.5 37.0109 36.5 39C36.5 40.9891 37.2902 42.8968 38.6967 44.3033C40.1032 45.7098 42.0109 46.5 44 46.5C45.9891 46.5 47.8968 45.7098 49.3033 44.3033C50.7098 42.8968 51.5 40.9891 51.5 39C51.5 37.0109 50.7098 35.1032 49.3033 33.6967C47.8968 32.2902 45.9891 31.5 44 31.5ZM44 43.6875C42.7573 43.686 41.5658 43.1917 40.6871 42.3129C39.8083 41.4342 39.314 40.2427 39.3125 39C39.3125 36.4144 41.4162 34.3125 44 34.3125C46.5837 34.3125 48.6875 36.4144 48.6875 39C48.6875 41.5837 46.5837 43.6875 44 43.6875Z" fill="url(#paint1_linear_15_134)"/>
<path d="M52.0625 31.9369C52.6144 31.9369 53.0619 31.4895 53.0619 30.9375C53.0619 30.3856 52.6144 29.9381 52.0625 29.9381C51.5105 29.9381 51.0631 30.3856 51.0631 30.9375C51.0631 31.4895 51.5105 31.9369 52.0625 31.9369Z" fill="url(#paint2_linear_15_134)"/>
<defs>
<filter id="filter0_d_15_134" x="0" y="0" width="88" height="88" filterUnits="userSpaceOnUse" color-interpolation-filters="sRGB">
<feFlood flood-opacity="0" result="BackgroundImageFix"/>
<feColorMatrix in="SourceAlpha" type="matrix" values="0 0 0 0 0 0 0 0 0 0 0 0 0 0 0 0 0 0 127 0" result="hardAlpha"/>
<feMorphology radius="2" operator="dilate" in="SourceAlpha" result="effect1_dropShadow_15_134"/>
<feOffset dy="5"/>
<feGaussianBlur stdDeviation="3.5"/>
<feComposite in2="hardAlpha" operator="out"/>
<feColorMatrix type="matrix" values="0 0 0 0 0.152941 0 0 0 0 0.137255 0 0 0 0 0.262745 0 0 0 0.25 0"/>
<feBlend mode="normal" in2="BackgroundImageFix" result="effect1_dropShadow_15_134"/>
<feBlend mode="normal" in="SourceGraphic" in2="effect1_dropShadow_15_134" result="shape"/>
</filter>
<linearGradient id="paint0_linear_15_134" x1="31.745" y1="51.255" x2="56.255" y2="26.745" gradientUnits="userSpaceOnUse">
<stop stop-color="#FFC107"/>
<stop offset="0.507" stop-color="#F44336"/>
<stop offset="0.99" stop-color="#9C27B0"/>
</linearGradient>
<linearGradient id="paint1_linear_15_134" x1="38.6975" y1="44.3025" x2="49.3025" y2="33.6975" gradientUnits="userSpaceOnUse">
<stop stop-color="#FFC107"/>
<stop offset="0.507" stop-color="#F44336"/>
<stop offset="0.99" stop-color="#9C27B0"/>
</linearGradient>
<linearGradient id="paint2_linear_15_134" x1="51.3556" y1="31.6444" x2="52.7694" y2="30.2306" gradientUnits="userSpaceOnUse">
<stop stop-color="#FFC107"/>
<stop offset="0.507" stop-color="#F44336"/>
<stop offset="0.99" stop-color="#9C27B0"/>
</linearGradient>
</defs>
</svg>
