<svg width="425" height="425" viewBox="0 0 425 425" fill="none" xmlns="http://www.w3.org/2000/svg">
<path d="M202.989 29.2705C205.983 20.0574 219.017 20.0574 222.011 29.2705L257.964 139.924C259.303 144.044 263.142 146.834 267.475 146.834H383.823C393.51 146.834 397.538 159.23 389.701 164.924L295.573 233.312C292.068 235.858 290.602 240.372 291.94 244.492L327.894 355.146C330.887 364.359 320.343 372.02 312.505 366.326L218.378 297.938C214.873 295.392 210.127 295.392 206.622 297.938L112.495 366.326C104.658 372.02 94.1127 364.359 97.1062 355.146L133.06 244.492C134.398 240.372 132.932 235.858 129.427 233.312L35.2995 164.924C27.4624 159.23 31.4901 146.834 41.1773 146.834L157.525 146.834C161.858 146.834 165.697 144.044 167.036 139.924L202.989 29.2705Z" fill="#F15956"/>
<path d="M100.39 180.549C102.246 179.973 104.166 179.685 106.15 179.685C108.71 179.685 110.63 180.143 111.91 181.061C113.19 181.978 113.83 183.397 113.83 185.317C113.83 186.298 113.616 187.13 113.19 187.813C112.763 188.495 112.091 189.082 111.174 189.573V189.765C112.432 190.127 113.35 190.671 113.926 191.397C114.502 192.122 114.79 193.039 114.79 194.149C114.79 195.407 114.534 196.442 114.022 197.253C113.51 198.063 112.646 198.682 111.43 199.109C110.235 199.514 108.603 199.717 106.534 199.717H100.39V180.549ZM109.19 188.389C109.958 187.578 110.342 186.639 110.342 185.573C110.342 184.506 110.011 183.77 109.35 183.365C108.71 182.938 107.643 182.725 106.15 182.725C105.382 182.725 104.624 182.81 103.878 182.981V188.389H109.19ZM106.47 196.677C107.728 196.677 108.699 196.591 109.382 196.421C110.086 196.25 110.576 195.973 110.854 195.589C111.152 195.205 111.302 194.693 111.302 194.053C111.302 193.178 111.014 192.517 110.438 192.069C109.883 191.621 108.998 191.397 107.782 191.397H103.878V196.677H106.47ZM125.782 200.005C123.414 200.005 121.58 199.738 120.278 199.205C118.998 198.671 118.358 197.733 118.358 196.389V179.941H131.83V183.173H121.846V188.357H130.614V191.429H121.846V196.485C123.126 196.698 124.47 196.805 125.878 196.805C127.99 196.805 129.857 196.602 131.478 196.197L132.086 199.301C130.486 199.77 128.385 200.005 125.782 200.005ZM145.702 180.581C147.643 179.983 149.681 179.685 151.814 179.685C157.233 179.685 159.942 181.946 159.942 186.469C159.942 188.901 159.249 190.725 157.862 191.941C156.475 193.135 154.331 193.733 151.43 193.733H149.222V199.717H145.702V180.581ZM150.982 190.565C152.049 190.565 152.934 190.533 153.638 190.469C154.363 190.405 155.025 190.298 155.622 190.149C156.177 189.231 156.454 188.058 156.454 186.629C156.454 185.285 156.07 184.325 155.302 183.749C154.555 183.173 153.425 182.885 151.91 182.885C150.822 182.885 149.926 182.97 149.222 183.141V190.565H150.982ZM159.953 199.461C160.828 196.175 161.82 192.783 162.929 189.285C164.039 185.786 165.127 182.671 166.193 179.941H171.697C172.764 182.671 173.852 185.786 174.961 189.285C176.071 192.783 177.063 196.175 177.937 199.461L174.225 199.717L173.649 197.445C173.223 195.781 172.892 194.533 172.657 193.701H165.201C164.561 196.026 164.049 198.031 163.665 199.717L159.953 199.461ZM171.793 190.597C170.769 187.183 169.991 184.719 169.457 183.205H168.465C167.74 185.231 166.951 187.695 166.097 190.597H171.793ZM194.93 199.941C194.183 199.941 193.597 199.813 193.17 199.557C192.743 199.301 192.402 198.885 192.146 198.309L190.354 194.501C190.077 193.903 189.831 193.455 189.618 193.157C189.405 192.858 189.095 192.613 188.69 192.421C188.285 192.229 187.741 192.133 187.058 192.133H184.722V199.717H181.202V180.517C183.186 179.919 185.191 179.621 187.218 179.621C189.757 179.621 191.677 180.101 192.978 181.061C194.279 182.021 194.93 183.514 194.93 185.541C194.93 188.122 193.746 189.978 191.378 191.109V191.397C191.911 191.61 192.359 191.877 192.722 192.197C193.085 192.517 193.415 192.943 193.714 193.477L195.794 197.381L197.266 197.669V199.653C196.669 199.845 195.89 199.941 194.93 199.941ZM189.714 189.125C190.29 188.783 190.717 188.357 190.994 187.845C191.293 187.311 191.442 186.639 191.442 185.829C191.442 184.698 191.101 183.909 190.418 183.461C189.757 182.991 188.679 182.757 187.186 182.757C186.205 182.757 185.383 182.831 184.722 182.981V189.125H189.714ZM204.478 183.205H198.142V179.941H214.334V183.205H207.998V199.717H204.478V183.205ZM234.817 199.973C232.065 199.973 229.985 199.151 228.577 197.509C227.191 195.845 226.497 193.402 226.497 190.181C226.497 186.618 227.223 183.973 228.673 182.245C230.124 180.495 232.396 179.621 235.489 179.621C241.057 179.621 243.841 182.895 243.841 189.445C243.841 192.986 243.105 195.631 241.633 197.381C240.183 199.109 237.911 199.973 234.817 199.973ZM235.361 196.741C236.876 196.741 238.103 196.549 239.041 196.165C239.895 194.223 240.321 192.165 240.321 189.989C240.321 188.325 240.161 186.981 239.841 185.957C239.521 184.933 238.967 184.165 238.177 183.653C237.409 183.141 236.332 182.885 234.945 182.885C233.367 182.885 232.108 183.077 231.169 183.461C230.38 185.253 229.985 187.311 229.985 189.637C229.985 191.301 230.145 192.655 230.465 193.701C230.807 194.725 231.361 195.493 232.129 196.005C232.919 196.495 233.996 196.741 235.361 196.741ZM247.64 179.941H261.272V183.173H251.16V188.453H259.64V191.589H251.16V199.717H247.64V179.941ZM278.853 183.205H272.517V179.941H288.709V183.205H282.373V199.717H278.853V183.205ZM291.983 179.941H295.503V188.517H303.663V179.941H307.183V199.717H303.663V191.781H295.503V199.717H291.983V179.941ZM319.126 200.005C316.758 200.005 314.923 199.738 313.622 199.205C312.342 198.671 311.702 197.733 311.702 196.389V179.941H325.174V183.173H315.19V188.357H323.958V191.429H315.19V196.485C316.47 196.698 317.814 196.805 319.222 196.805C321.334 196.805 323.201 196.602 324.822 196.197L325.43 199.301C323.83 199.77 321.729 200.005 319.126 200.005ZM155.483 214.581C157.425 213.983 159.462 213.685 161.595 213.685C167.014 213.685 169.723 215.946 169.723 220.469C169.723 222.901 169.03 224.725 167.643 225.941C166.257 227.135 164.113 227.733 161.211 227.733H159.003V233.717H155.483V214.581ZM160.763 224.565C161.83 224.565 162.715 224.533 163.419 224.469C164.145 224.405 164.806 224.298 165.403 224.149C165.958 223.231 166.235 222.058 166.235 220.629C166.235 219.285 165.851 218.325 165.083 217.749C164.337 217.173 163.206 216.885 161.691 216.885C160.603 216.885 159.707 216.97 159.003 217.141V224.565H160.763ZM180.505 233.973C177.753 233.973 175.673 233.151 174.265 231.509C172.878 229.845 172.185 227.402 172.185 224.181C172.185 220.618 172.91 217.973 174.361 216.245C175.812 214.495 178.084 213.621 181.177 213.621C186.745 213.621 189.529 216.895 189.529 223.445C189.529 226.986 188.793 229.631 187.321 231.381C185.87 233.109 183.598 233.973 180.505 233.973ZM181.049 230.741C182.564 230.741 183.79 230.549 184.729 230.165C185.582 228.223 186.009 226.165 186.009 223.989C186.009 222.325 185.849 220.981 185.529 219.957C185.209 218.933 184.654 218.165 183.865 217.653C183.097 217.141 182.02 216.885 180.633 216.885C179.054 216.885 177.796 217.077 176.857 217.461C176.068 219.253 175.673 221.311 175.673 223.637C175.673 225.301 175.833 226.655 176.153 227.701C176.494 228.725 177.049 229.493 177.817 230.005C178.606 230.495 179.684 230.741 181.049 230.741ZM193.327 214.581C195.268 213.983 197.306 213.685 199.439 213.685C204.858 213.685 207.567 215.946 207.567 220.469C207.567 222.901 206.874 224.725 205.487 225.941C204.1 227.135 201.956 227.733 199.055 227.733H196.847V233.717H193.327V214.581ZM198.607 224.565C199.674 224.565 200.559 224.533 201.263 224.469C201.988 224.405 202.65 224.298 203.247 224.149C203.802 223.231 204.079 222.058 204.079 220.629C204.079 219.285 203.695 218.325 202.927 217.749C202.18 217.173 201.05 216.885 199.535 216.885C198.447 216.885 197.551 216.97 196.847 217.141V224.565H198.607ZM210.765 214.581C212.706 213.983 214.743 213.685 216.877 213.685C222.295 213.685 225.005 215.946 225.005 220.469C225.005 222.901 224.311 224.725 222.925 225.941C221.538 227.135 219.394 227.733 216.493 227.733H214.285V233.717H210.765V214.581ZM216.045 224.565C217.111 224.565 217.997 224.533 218.701 224.469C219.426 224.405 220.087 224.298 220.685 224.149C221.239 223.231 221.517 222.058 221.517 220.629C221.517 219.285 221.133 218.325 220.365 217.749C219.618 217.173 218.487 216.885 216.973 216.885C215.885 216.885 214.989 216.97 214.285 217.141V224.565H216.045ZM228.298 213.941H231.818V233.717H228.298V213.941ZM236.452 213.941H240.772L248.996 229.237L249.252 229.173L248.9 224.085V213.941H252.452V233.717H248.132L239.876 218.421L239.62 218.485L239.972 223.605V233.717H236.452V213.941ZM263.223 233.973C260.578 233.973 258.231 233.418 256.183 232.309L257.367 229.333C259.159 230.293 261.186 230.773 263.447 230.773C264.706 230.773 265.783 230.677 266.679 230.485C266.893 229.93 266.999 229.269 266.999 228.501C266.999 227.69 266.743 227.082 266.231 226.677C265.719 226.25 264.791 225.877 263.447 225.557C262.018 225.215 260.834 224.831 259.895 224.405C258.957 223.957 258.21 223.349 257.655 222.581C257.101 221.791 256.823 220.767 256.823 219.509C256.823 217.781 257.399 216.373 258.551 215.285C259.703 214.175 261.474 213.621 263.863 213.621C265.207 213.621 266.338 213.749 267.255 214.005C268.194 214.239 269.058 214.581 269.847 215.029V216.181C269.847 216.671 269.794 217.247 269.687 217.909C269.581 218.57 269.453 219.103 269.303 219.509H266.583L266.231 216.917C265.378 216.789 264.535 216.725 263.703 216.725C262.53 216.725 261.677 216.927 261.143 217.333C260.61 217.738 260.343 218.399 260.343 219.317C260.343 220.106 260.621 220.703 261.175 221.109C261.751 221.514 262.807 221.887 264.343 222.229C266.498 222.698 268.066 223.359 269.047 224.213C270.029 225.045 270.519 226.325 270.519 228.053C270.519 229.845 269.943 231.285 268.791 232.373C267.639 233.439 265.783 233.973 263.223 233.973ZM187.225 268.005C184.239 268.005 181.988 267.205 180.473 265.605C178.98 263.983 178.233 261.594 178.233 258.437C178.233 255.151 178.969 252.527 180.441 250.565C181.913 248.602 184.089 247.621 186.969 247.621C188.271 247.621 189.497 247.759 190.649 248.037C191.801 248.293 192.719 248.623 193.401 249.029V250.629C193.401 251.141 193.359 251.674 193.273 252.229C193.209 252.783 193.113 253.253 192.985 253.637H190.297L189.977 251.173C189.188 250.981 188.121 250.885 186.777 250.885C185.583 250.885 184.356 251.023 183.097 251.301C182.201 253.221 181.753 255.535 181.753 258.245C181.753 260.549 182.18 262.213 183.033 263.237C183.908 264.239 185.359 264.741 187.385 264.741C188.473 264.741 189.487 264.613 190.425 264.357C191.385 264.101 192.185 263.749 192.825 263.301L194.297 266.021C193.487 266.661 192.484 267.151 191.289 267.493C190.095 267.834 188.74 268.005 187.225 268.005ZM197.78 247.941H201.3V264.453H210.036V267.717H197.78V247.941ZM220.361 268.005C217.843 268.005 215.966 267.461 214.729 266.373C213.491 265.263 212.873 263.663 212.873 261.573V247.941H216.393V260.869C216.393 262.341 216.702 263.365 217.321 263.941C217.961 264.495 219.049 264.773 220.585 264.773C222.398 264.773 223.859 264.559 224.969 264.133V247.941H228.489V263.525C228.489 265.103 227.753 266.245 226.281 266.949C224.83 267.653 222.857 268.005 220.361 268.005ZM232.968 248.549C234.824 247.973 236.744 247.685 238.728 247.685C241.288 247.685 243.208 248.143 244.488 249.061C245.768 249.978 246.408 251.397 246.408 253.317C246.408 254.298 246.194 255.13 245.768 255.813C245.341 256.495 244.669 257.082 243.752 257.573V257.765C245.01 258.127 245.928 258.671 246.504 259.397C247.08 260.122 247.368 261.039 247.368 262.149C247.368 263.407 247.112 264.442 246.6 265.253C246.088 266.063 245.224 266.682 244.008 267.109C242.813 267.514 241.181 267.717 239.112 267.717H232.968V248.549ZM241.768 256.389C242.536 255.578 242.92 254.639 242.92 253.573C242.92 252.506 242.589 251.77 241.928 251.365C241.288 250.938 240.221 250.725 238.728 250.725C237.96 250.725 237.202 250.81 236.456 250.981V256.389H241.768ZM239.048 264.677C240.306 264.677 241.277 264.591 241.96 264.421C242.664 264.25 243.154 263.973 243.432 263.589C243.73 263.205 243.88 262.693 243.88 262.053C243.88 261.178 243.592 260.517 243.016 260.069C242.461 259.621 241.576 259.397 240.36 259.397H236.456V264.677H239.048Z" fill="white"/>
</svg>
